<svg xmlns="http://www.w3.org/2000/svg" xmlns:xlink="http://www.w3.org/1999/xlink" width="500" zoomAndPan="magnify" viewBox="0 0 375 149.999998" height="200" preserveAspectRatio="xMidYMid meet" version="1.0"><defs><g/><clipPath id="04df489978"><path d="M 168.699219 22.289062 L 198.492188 22.289062 L 198.492188 124.652344 L 168.699219 124.652344 Z M 168.699219 22.289062 " clip-rule="nonzero"/></clipPath></defs><g fill="#000000" fill-opacity="1"><g transform="translate(2.560857, 124.900015)"><g><path d="M 19.171875 0 C 15.046875 0 11.554688 -1.425781 8.703125 -4.28125 C 5.847656 -7.132812 4.421875 -10.625 4.421875 -14.75 L 4.421875 -88.515625 C 4.421875 -92.648438 5.847656 -96.140625 8.703125 -98.984375 C 11.554688 -101.835938 15.046875 -103.265625 19.171875 -103.265625 L 33.046875 -103.265625 C 37.179688 -103.265625 40.671875 -101.835938 43.515625 -98.984375 C 46.367188 -96.140625 47.796875 -92.648438 47.796875 -88.515625 L 47.796875 -39.984375 L 29.21875 -39.984375 L 29.21875 -84.6875 C 29.21875 -85.570312 28.921875 -86.304688 28.328125 -86.890625 C 27.734375 -87.484375 26.992188 -87.78125 26.109375 -87.78125 C 25.222656 -87.78125 24.484375 -87.484375 23.890625 -86.890625 C 23.304688 -86.304688 23.015625 -85.570312 23.015625 -84.6875 L 23.015625 -18.734375 C 23.015625 -17.847656 23.304688 -17.109375 23.890625 -16.515625 C 24.484375 -15.929688 25.222656 -15.640625 26.109375 -15.640625 C 26.992188 -15.640625 27.734375 -15.929688 28.328125 -16.515625 C 28.921875 -17.109375 29.21875 -17.847656 29.21875 -18.734375 L 29.21875 -24.34375 L 47.796875 -24.34375 L 47.796875 -14.75 C 47.796875 -10.625 46.367188 -7.132812 43.515625 -4.28125 C 40.671875 -1.425781 37.179688 0 33.046875 0 Z M 19.171875 0 "/></g></g></g><g fill="#000000" fill-opacity="1"><g transform="translate(51.539159, 124.900015)"><g><path d="M 2.21875 0 L 13.125 -103.265625 L 38.796875 -103.265625 L 49.859375 0 L 31.28125 0 L 30.09375 -15.34375 L 21.984375 -15.34375 L 20.796875 0 Z M 23.15625 -30.984375 L 28.921875 -30.984375 L 25.96875 -69.9375 Z M 23.15625 -30.984375 "/></g></g></g><g fill="#000000" fill-opacity="1"><g transform="translate(100.369935, 124.900015)"><g><path d="M 4.421875 0 L 4.421875 -103.265625 L 28.03125 -103.265625 L 35.265625 -57.234375 L 42.484375 -103.265625 L 66.09375 -103.265625 L 66.09375 0 L 47.5 0 L 47.5 -57.09375 L 40.125 0 L 30.25 0 L 23.015625 -57.09375 L 23.015625 0 Z M 4.421875 0 "/></g></g></g><g fill="#000000" fill-opacity="1"><g transform="translate(167.641465, 124.900015)"><g/></g></g><g fill="#000000" fill-opacity="1"><g transform="translate(196.851251, 124.900015)"><g><path d="M 4.421875 0 L 4.421875 -103.265625 L 33.046875 -103.265625 C 37.179688 -103.265625 40.671875 -101.835938 43.515625 -98.984375 C 46.367188 -96.140625 47.796875 -92.648438 47.796875 -88.515625 L 47.796875 -39.09375 C 47.796875 -34.96875 46.367188 -31.476562 43.515625 -28.625 C 40.671875 -25.769531 37.179688 -24.34375 33.046875 -24.34375 L 23.015625 -24.34375 L 23.015625 0 Z M 23.015625 -39.984375 L 26.109375 -39.984375 C 26.992188 -39.984375 27.734375 -40.273438 28.328125 -40.859375 C 28.921875 -41.453125 29.21875 -42.191406 29.21875 -43.078125 L 29.21875 -84.6875 C 29.21875 -85.570312 28.921875 -86.304688 28.328125 -86.890625 C 27.734375 -87.484375 26.992188 -87.78125 26.109375 -87.78125 L 23.015625 -87.78125 Z M 23.015625 -39.984375 "/></g></g></g><g fill="#000000" fill-opacity="1"><g transform="translate(245.829567, 124.900015)"><g><path d="M 4.421875 0 L 4.421875 -103.265625 L 23.015625 -103.265625 L 23.015625 0 Z M 4.421875 0 "/></g></g></g><g fill="#000000" fill-opacity="1"><g transform="translate(270.023459, 124.900015)"><g><path d="M 19.171875 0 C 15.046875 0 11.554688 -1.425781 8.703125 -4.28125 C 5.847656 -7.132812 4.421875 -10.625 4.421875 -14.75 L 4.421875 -88.515625 C 4.421875 -92.648438 5.847656 -96.140625 8.703125 -98.984375 C 11.554688 -101.835938 15.046875 -103.265625 19.171875 -103.265625 L 33.046875 -103.265625 C 37.179688 -103.265625 40.671875 -101.835938 43.515625 -98.984375 C 46.367188 -96.140625 47.796875 -92.648438 47.796875 -88.515625 L 47.796875 -39.984375 L 29.21875 -39.984375 L 29.21875 -84.6875 C 29.21875 -85.570312 28.921875 -86.304688 28.328125 -86.890625 C 27.734375 -87.484375 26.992188 -87.78125 26.109375 -87.78125 C 25.222656 -87.78125 24.484375 -87.484375 23.890625 -86.890625 C 23.304688 -86.304688 23.015625 -85.570312 23.015625 -84.6875 L 23.015625 -18.734375 C 23.015625 -17.847656 23.304688 -17.109375 23.890625 -16.515625 C 24.484375 -15.929688 25.222656 -15.640625 26.109375 -15.640625 C 26.992188 -15.640625 27.734375 -15.929688 28.328125 -16.515625 C 28.921875 -17.109375 29.21875 -17.847656 29.21875 -18.734375 L 29.21875 -24.34375 L 47.796875 -24.34375 L 47.796875 -14.75 C 47.796875 -10.625 46.367188 -7.132812 43.515625 -4.28125 C 40.671875 -1.425781 37.179688 0 33.046875 0 Z M 19.171875 0 "/></g></g></g><g fill="#000000" fill-opacity="1"><g transform="translate(319.001761, 124.900015)"><g><path d="M 4.421875 0 L 4.421875 -103.265625 L 23.015625 -103.265625 L 23.015625 -39.984375 L 26.109375 -39.984375 C 26.992188 -39.984375 27.734375 -40.273438 28.328125 -40.859375 C 28.921875 -41.453125 29.21875 -42.191406 29.21875 -43.078125 L 29.21875 -103.265625 L 47.796875 -103.265625 L 47.796875 -44.546875 C 47.796875 -41.796875 47.0625 -39.289062 45.59375 -37.03125 C 43.914062 -34.769531 41.945312 -33.144531 39.6875 -32.15625 C 42.238281 -30.882812 44.226562 -29.238281 45.65625 -27.21875 C 47.082031 -25.195312 47.796875 -22.765625 47.796875 -19.921875 L 47.796875 0 L 29.21875 0 L 29.21875 -21.25 C 29.21875 -22.132812 28.921875 -22.867188 28.328125 -23.453125 C 27.734375 -24.046875 26.992188 -24.34375 26.109375 -24.34375 L 23.015625 -24.34375 L 23.015625 0 Z M 4.421875 0 "/></g></g></g><g clip-path="url(#04df489978)"><path fill="#ff680a" d="M 168.699219 22.289062 L 198.492188 22.289062 L 198.492188 124.703125 L 168.699219 124.703125 Z M 168.699219 22.289062 " fill-opacity="1" fill-rule="nonzero"/></g><g fill="#000000" fill-opacity="1"><g transform="translate(189.60841, 109.266221)"><g><path d="M 0 -7.953125 L -8.671875 -3.046875 C -7.828125 -3.140625 -7.148438 -3.1875 -6.640625 -3.1875 L 0 -3.1875 L 0 -1.09375 L -11.265625 -1.09375 L -11.265625 -3.796875 L -2.515625 -8.765625 C -3.316406 -8.671875 -4.050781 -8.625 -4.71875 -8.625 L -11.265625 -8.625 L -11.265625 -10.71875 L 0 -10.71875 Z M 0 -7.953125 "/></g></g></g><g fill="#000000" fill-opacity="1"><g transform="translate(189.60841, 93.868573)"><g><path d="M 0.15625 -5.78125 C 0.15625 -4.226562 -0.21875 -3.039062 -0.96875 -2.21875 C -1.726562 -1.394531 -2.8125 -0.984375 -4.21875 -0.984375 L -11.265625 -0.984375 L -11.265625 -3.34375 L -4.40625 -3.34375 C -3.519531 -3.34375 -2.84375 -3.550781 -2.375 -3.96875 C -1.914062 -4.394531 -1.6875 -5.019531 -1.6875 -5.84375 C -1.6875 -6.6875 -1.925781 -7.332031 -2.40625 -7.78125 C -2.894531 -8.238281 -3.585938 -8.46875 -4.484375 -8.46875 L -11.265625 -8.46875 L -11.265625 -10.828125 L -4.34375 -10.828125 C -2.914062 -10.828125 -1.804688 -10.382812 -1.015625 -9.5 C -0.234375 -8.613281 0.15625 -7.375 0.15625 -5.78125 Z M 0.15625 -5.78125 "/></g></g></g><g fill="#000000" fill-opacity="1"><g transform="translate(189.60841, 78.470925)"><g><path d="M -1.6875 -6.359375 C -1.6875 -7.773438 -2.40625 -8.765625 -3.84375 -9.328125 L -3.0625 -11.375 C -1.976562 -10.9375 -1.171875 -10.285156 -0.640625 -9.421875 C -0.109375 -8.566406 0.15625 -7.546875 0.15625 -6.359375 C 0.15625 -4.546875 -0.351562 -3.144531 -1.375 -2.15625 C -2.40625 -1.164062 -3.84375 -0.671875 -5.6875 -0.671875 C -7.53125 -0.671875 -8.945312 -1.144531 -9.9375 -2.09375 C -10.9375 -3.050781 -11.4375 -4.4375 -11.4375 -6.25 C -11.4375 -7.570312 -11.171875 -8.648438 -10.640625 -9.484375 C -10.109375 -10.316406 -9.328125 -10.898438 -8.296875 -11.234375 L -7.734375 -9.15625 C -8.296875 -8.976562 -8.742188 -8.628906 -9.078125 -8.109375 C -9.410156 -7.597656 -9.578125 -6.992188 -9.578125 -6.296875 C -9.578125 -5.234375 -9.242188 -4.425781 -8.578125 -3.875 C -7.921875 -3.320312 -6.957031 -3.046875 -5.6875 -3.046875 C -4.382812 -3.046875 -3.390625 -3.328125 -2.703125 -3.890625 C -2.023438 -4.460938 -1.6875 -5.285156 -1.6875 -6.359375 Z M -1.6875 -6.359375 "/></g></g></g><g fill="#000000" fill-opacity="1"><g transform="translate(189.60841, 63.073279)"><g><path d="M 0 -1.09375 L -11.265625 -1.09375 L -11.265625 -9.953125 L -9.4375 -9.953125 L -9.4375 -3.453125 L -6.609375 -3.453125 L -6.609375 -9.46875 L -4.796875 -9.46875 L -4.796875 -3.453125 L -1.828125 -3.453125 L -1.828125 -10.28125 L 0 -10.28125 Z M 0 -1.09375 "/></g></g></g><g fill="#000000" fill-opacity="1"><g transform="translate(189.60841, 48.578155)"><g><path d="M -3.25 -10.28125 C -2.144531 -10.28125 -1.300781 -9.867188 -0.71875 -9.046875 C -0.132812 -8.234375 0.15625 -7.035156 0.15625 -5.453125 C 0.15625 -4.003906 -0.0976562 -2.867188 -0.609375 -2.046875 C -1.117188 -1.234375 -1.894531 -0.707031 -2.9375 -0.46875 L -3.3125 -2.75 C -2.71875 -2.90625 -2.285156 -3.207031 -2.015625 -3.65625 C -1.742188 -4.101562 -1.609375 -4.722656 -1.609375 -5.515625 C -1.609375 -7.160156 -2.109375 -7.984375 -3.109375 -7.984375 C -3.429688 -7.984375 -3.695312 -7.890625 -3.90625 -7.703125 C -4.113281 -7.515625 -4.285156 -7.25 -4.421875 -6.90625 C -4.554688 -6.5625 -4.722656 -5.898438 -4.921875 -4.921875 C -5.117188 -4.078125 -5.273438 -3.488281 -5.390625 -3.15625 C -5.515625 -2.832031 -5.65625 -2.535156 -5.8125 -2.265625 C -5.976562 -2.003906 -6.175781 -1.78125 -6.40625 -1.59375 C -6.632812 -1.40625 -6.90625 -1.257812 -7.21875 -1.15625 C -7.53125 -1.050781 -7.882812 -1 -8.28125 -1 C -9.300781 -1 -10.082031 -1.378906 -10.625 -2.140625 C -11.164062 -2.910156 -11.4375 -4.023438 -11.4375 -5.484375 C -11.4375 -6.878906 -11.21875 -7.925781 -10.78125 -8.625 C -10.34375 -9.332031 -9.617188 -9.785156 -8.609375 -9.984375 L -8.296875 -7.703125 C -8.785156 -7.585938 -9.148438 -7.347656 -9.390625 -6.984375 C -9.640625 -6.617188 -9.765625 -6.101562 -9.765625 -5.4375 C -9.765625 -4.007812 -9.316406 -3.296875 -8.421875 -3.296875 C -8.128906 -3.296875 -7.890625 -3.367188 -7.703125 -3.515625 C -7.515625 -3.671875 -7.351562 -3.894531 -7.21875 -4.1875 C -7.09375 -4.488281 -6.929688 -5.097656 -6.734375 -6.015625 C -6.503906 -7.097656 -6.289062 -7.867188 -6.09375 -8.328125 C -5.90625 -8.796875 -5.679688 -9.164062 -5.421875 -9.4375 C -5.160156 -9.707031 -4.847656 -9.914062 -4.484375 -10.0625 C -4.128906 -10.207031 -3.71875 -10.28125 -3.25 -10.28125 Z M -3.25 -10.28125 "/></g></g></g></svg>