<svg xmlns="http://www.w3.org/2000/svg" xmlns:xlink="http://www.w3.org/1999/xlink" width="500" zoomAndPan="magnify" viewBox="0 0 375 149.999998" height="200" preserveAspectRatio="xMidYMid meet" version="1.0"><defs><g/><clipPath id="d3a7accc76"><path d="M 170.652344 16.226562 L 198.117188 16.226562 L 198.117188 118.589844 L 170.652344 118.589844 Z M 170.652344 16.226562 " clip-rule="nonzero"/></clipPath></defs><g fill="#ffffff" fill-opacity="1"><g transform="translate(2.78142, 118.505804)"><g><path d="M 19.171875 0 C 15.046875 0 11.554688 -1.425781 8.703125 -4.28125 C 5.847656 -7.132812 4.421875 -10.625 4.421875 -14.75 L 4.421875 -88.515625 C 4.421875 -92.648438 5.847656 -96.140625 8.703125 -98.984375 C 11.554688 -101.835938 15.046875 -103.265625 19.171875 -103.265625 L 33.046875 -103.265625 C 37.179688 -103.265625 40.671875 -101.835938 43.515625 -98.984375 C 46.367188 -96.140625 47.796875 -92.648438 47.796875 -88.515625 L 47.796875 -39.984375 L 29.21875 -39.984375 L 29.21875 -84.6875 C 29.21875 -85.570312 28.921875 -86.304688 28.328125 -86.890625 C 27.734375 -87.484375 26.992188 -87.78125 26.109375 -87.78125 C 25.222656 -87.78125 24.484375 -87.484375 23.890625 -86.890625 C 23.304688 -86.304688 23.015625 -85.570312 23.015625 -84.6875 L 23.015625 -18.734375 C 23.015625 -17.847656 23.304688 -17.109375 23.890625 -16.515625 C 24.484375 -15.929688 25.222656 -15.640625 26.109375 -15.640625 C 26.992188 -15.640625 27.734375 -15.929688 28.328125 -16.515625 C 28.921875 -17.109375 29.21875 -17.847656 29.21875 -18.734375 L 29.21875 -24.34375 L 47.796875 -24.34375 L 47.796875 -14.75 C 47.796875 -10.625 46.367188 -7.132812 43.515625 -4.28125 C 40.671875 -1.425781 37.179688 0 33.046875 0 Z M 19.171875 0 "/></g></g></g><g fill="#ffffff" fill-opacity="1"><g transform="translate(51.759721, 118.505804)"><g><path d="M 2.21875 0 L 13.125 -103.265625 L 38.796875 -103.265625 L 49.859375 0 L 31.28125 0 L 30.09375 -15.34375 L 21.984375 -15.34375 L 20.796875 0 Z M 23.15625 -30.984375 L 28.921875 -30.984375 L 25.96875 -69.9375 Z M 23.15625 -30.984375 "/></g></g></g><g fill="#ffffff" fill-opacity="1"><g transform="translate(100.590497, 118.505804)"><g><path d="M 4.421875 0 L 4.421875 -103.265625 L 28.03125 -103.265625 L 35.265625 -57.234375 L 42.484375 -103.265625 L 66.09375 -103.265625 L 66.09375 0 L 47.5 0 L 47.5 -57.09375 L 40.125 0 L 30.25 0 L 23.015625 -57.09375 L 23.015625 0 Z M 4.421875 0 "/></g></g></g><g fill="#ffffff" fill-opacity="1"><g transform="translate(167.862027, 118.505804)"><g/></g></g><g fill="#ffffff" fill-opacity="1"><g transform="translate(197.071814, 118.505804)"><g><path d="M 4.421875 0 L 4.421875 -103.265625 L 33.046875 -103.265625 C 37.179688 -103.265625 40.671875 -101.835938 43.515625 -98.984375 C 46.367188 -96.140625 47.796875 -92.648438 47.796875 -88.515625 L 47.796875 -39.09375 C 47.796875 -34.96875 46.367188 -31.476562 43.515625 -28.625 C 40.671875 -25.769531 37.179688 -24.34375 33.046875 -24.34375 L 23.015625 -24.34375 L 23.015625 0 Z M 23.015625 -39.984375 L 26.109375 -39.984375 C 26.992188 -39.984375 27.734375 -40.273438 28.328125 -40.859375 C 28.921875 -41.453125 29.21875 -42.191406 29.21875 -43.078125 L 29.21875 -84.6875 C 29.21875 -85.570312 28.921875 -86.304688 28.328125 -86.890625 C 27.734375 -87.484375 26.992188 -87.78125 26.109375 -87.78125 L 23.015625 -87.78125 Z M 23.015625 -39.984375 "/></g></g></g><g fill="#ffffff" fill-opacity="1"><g transform="translate(246.05013, 118.505804)"><g><path d="M 4.421875 0 L 4.421875 -103.265625 L 23.015625 -103.265625 L 23.015625 0 Z M 4.421875 0 "/></g></g></g><g fill="#ffffff" fill-opacity="1"><g transform="translate(270.244022, 118.505804)"><g><path d="M 19.171875 0 C 15.046875 0 11.554688 -1.425781 8.703125 -4.28125 C 5.847656 -7.132812 4.421875 -10.625 4.421875 -14.75 L 4.421875 -88.515625 C 4.421875 -92.648438 5.847656 -96.140625 8.703125 -98.984375 C 11.554688 -101.835938 15.046875 -103.265625 19.171875 -103.265625 L 33.046875 -103.265625 C 37.179688 -103.265625 40.671875 -101.835938 43.515625 -98.984375 C 46.367188 -96.140625 47.796875 -92.648438 47.796875 -88.515625 L 47.796875 -39.984375 L 29.21875 -39.984375 L 29.21875 -84.6875 C 29.21875 -85.570312 28.921875 -86.304688 28.328125 -86.890625 C 27.734375 -87.484375 26.992188 -87.78125 26.109375 -87.78125 C 25.222656 -87.78125 24.484375 -87.484375 23.890625 -86.890625 C 23.304688 -86.304688 23.015625 -85.570312 23.015625 -84.6875 L 23.015625 -18.734375 C 23.015625 -17.847656 23.304688 -17.109375 23.890625 -16.515625 C 24.484375 -15.929688 25.222656 -15.640625 26.109375 -15.640625 C 26.992188 -15.640625 27.734375 -15.929688 28.328125 -16.515625 C 28.921875 -17.109375 29.21875 -17.847656 29.21875 -18.734375 L 29.21875 -24.34375 L 47.796875 -24.34375 L 47.796875 -14.75 C 47.796875 -10.625 46.367188 -7.132812 43.515625 -4.28125 C 40.671875 -1.425781 37.179688 0 33.046875 0 Z M 19.171875 0 "/></g></g></g><g fill="#ffffff" fill-opacity="1"><g transform="translate(319.222323, 118.505804)"><g><path d="M 4.421875 0 L 4.421875 -103.265625 L 23.015625 -103.265625 L 23.015625 -39.984375 L 26.109375 -39.984375 C 26.992188 -39.984375 27.734375 -40.273438 28.328125 -40.859375 C 28.921875 -41.453125 29.21875 -42.191406 29.21875 -43.078125 L 29.21875 -103.265625 L 47.796875 -103.265625 L 47.796875 -44.546875 C 47.796875 -41.796875 47.0625 -39.289062 45.59375 -37.03125 C 43.914062 -34.769531 41.945312 -33.144531 39.6875 -32.15625 C 42.238281 -30.882812 44.226562 -29.238281 45.65625 -27.21875 C 47.082031 -25.195312 47.796875 -22.765625 47.796875 -19.921875 L 47.796875 0 L 29.21875 0 L 29.21875 -21.25 C 29.21875 -22.132812 28.921875 -22.867188 28.328125 -23.453125 C 27.734375 -24.046875 26.992188 -24.34375 26.109375 -24.34375 L 23.015625 -24.34375 L 23.015625 0 Z M 4.421875 0 "/></g></g></g><g clip-path="url(#d3a7accc76)"><path fill="#ff680a" d="M 170.652344 16.226562 L 198.117188 16.226562 L 198.117188 118.582031 L 170.652344 118.582031 Z M 170.652344 16.226562 " fill-opacity="1" fill-rule="nonzero"/></g><g fill="#000000" fill-opacity="1"><g transform="translate(191.50401, 103.820445)"><g><path d="M -8.375 -4.0625 L 0 -4.0625 L 0 -0.984375 L -13.5 -0.984375 L -13.5 -4.0625 L -5.125 -9.421875 L -5.125 -9.453125 L -13.5 -9.453125 L -13.5 -12.53125 L 0 -12.53125 L 0 -9.453125 L -8.375 -4.09375 Z M -8.375 -4.0625 "/></g></g></g><g fill="#000000" fill-opacity="1"><g transform="translate(191.50401, 86.722621)"><g><path d="M -13.5 -11.359375 L -4.796875 -11.359375 C -3.140625 -11.359375 -1.882812 -10.910156 -1.03125 -10.015625 C -0.175781 -9.117188 0.25 -7.804688 0.25 -6.078125 C 0.25 -4.359375 -0.175781 -3.050781 -1.03125 -2.15625 C -1.882812 -1.257812 -3.140625 -0.8125 -4.796875 -0.8125 L -13.5 -0.8125 L -13.5 -3.890625 L -5.6875 -3.890625 C -4.601562 -3.890625 -3.847656 -4.0625 -3.421875 -4.40625 C -2.992188 -4.75 -2.78125 -5.304688 -2.78125 -6.078125 C -2.78125 -6.859375 -2.992188 -7.421875 -3.421875 -7.765625 C -3.847656 -8.109375 -4.601562 -8.28125 -5.6875 -8.28125 L -13.5 -8.28125 Z M -13.5 -11.359375 "/></g></g></g><g fill="#000000" fill-opacity="1"><g transform="translate(191.50401, 70.966262)"><g><path d="M -2.78125 -8.15625 C -2.78125 -8.625 -2.847656 -9.078125 -2.984375 -9.515625 C -3.128906 -9.960938 -3.269531 -10.289062 -3.40625 -10.5 L -3.609375 -10.8125 L -1 -12.125 C -0.96875 -12.082031 -0.921875 -12.019531 -0.859375 -11.9375 C -0.804688 -11.863281 -0.707031 -11.6875 -0.5625 -11.40625 C -0.414062 -11.132812 -0.285156 -10.835938 -0.171875 -10.515625 C -0.0664062 -10.203125 0.0234375 -9.785156 0.109375 -9.265625 C 0.203125 -8.753906 0.25 -8.226562 0.25 -7.6875 C 0.25 -6.4375 -0.0546875 -5.25 -0.671875 -4.125 C -1.296875 -3 -2.144531 -2.09375 -3.21875 -1.40625 C -4.300781 -0.71875 -5.46875 -0.375 -6.71875 -0.375 C -7.664062 -0.375 -8.578125 -0.578125 -9.453125 -0.984375 C -10.328125 -1.390625 -11.070312 -1.925781 -11.6875 -2.59375 C -12.3125 -3.257812 -12.804688 -4.039062 -13.171875 -4.9375 C -13.546875 -5.832031 -13.734375 -6.75 -13.734375 -7.6875 C -13.734375 -8.5625 -13.628906 -9.363281 -13.421875 -10.09375 C -13.222656 -10.832031 -13.019531 -11.359375 -12.8125 -11.671875 L -12.5 -12.125 L -9.875 -10.8125 C -9.945312 -10.738281 -10.023438 -10.625 -10.109375 -10.46875 C -10.203125 -10.3125 -10.328125 -10.003906 -10.484375 -9.546875 C -10.640625 -9.085938 -10.71875 -8.625 -10.71875 -8.15625 C -10.71875 -7.414062 -10.597656 -6.75 -10.359375 -6.15625 C -10.117188 -5.570312 -9.800781 -5.109375 -9.40625 -4.765625 C -9.007812 -4.421875 -8.582031 -4.160156 -8.125 -3.984375 C -7.675781 -3.804688 -7.21875 -3.71875 -6.75 -3.71875 C -5.726562 -3.71875 -4.8125 -4.097656 -4 -4.859375 C -3.1875 -5.628906 -2.78125 -6.726562 -2.78125 -8.15625 Z M -2.78125 -8.15625 "/></g></g></g><g fill="#000000" fill-opacity="1"><g transform="translate(191.50401, 55.062666)"><g><path d="M -13.5 -8.703125 L -10.796875 -8.703125 L -10.796875 -4.0625 L -8.109375 -4.0625 L -8.109375 -8.5 L -5.421875 -8.5 L -5.421875 -4.0625 L -2.703125 -4.0625 L -2.703125 -8.703125 L 0 -8.703125 L 0 -0.984375 L -13.5 -0.984375 Z M -13.5 -8.703125 "/></g></g></g><g fill="#000000" fill-opacity="1"><g transform="translate(191.50401, 41.989234)"><g><path d="M -13.734375 -5.953125 C -13.734375 -6.679688 -13.628906 -7.394531 -13.421875 -8.09375 C -13.210938 -8.789062 -13.003906 -9.3125 -12.796875 -9.65625 L -12.46875 -10.140625 L -10.015625 -8.90625 C -10.078125 -8.800781 -10.160156 -8.660156 -10.265625 -8.484375 C -10.367188 -8.316406 -10.503906 -7.992188 -10.671875 -7.515625 C -10.847656 -7.035156 -10.9375 -6.585938 -10.9375 -6.171875 C -10.9375 -5.660156 -10.828125 -5.265625 -10.609375 -4.984375 C -10.398438 -4.703125 -10.109375 -4.5625 -9.734375 -4.5625 C -9.546875 -4.5625 -9.375 -4.625 -9.21875 -4.75 C -9.0625 -4.882812 -8.890625 -5.109375 -8.703125 -5.421875 C -8.523438 -5.742188 -8.378906 -6.023438 -8.265625 -6.265625 C -8.160156 -6.503906 -8 -6.875 -7.78125 -7.375 C -7.414062 -8.25 -6.910156 -8.992188 -6.265625 -9.609375 C -5.628906 -10.222656 -4.910156 -10.53125 -4.109375 -10.53125 C -3.328125 -10.53125 -2.644531 -10.390625 -2.0625 -10.109375 C -1.488281 -9.835938 -1.039062 -9.457031 -0.71875 -8.96875 C -0.394531 -8.488281 -0.15625 -7.953125 0 -7.359375 C 0.164062 -6.773438 0.25 -6.140625 0.25 -5.453125 C 0.25 -4.859375 0.1875 -4.273438 0.0625 -3.703125 C -0.0507812 -3.140625 -0.195312 -2.664062 -0.375 -2.28125 C -0.5625 -1.90625 -0.738281 -1.5625 -0.90625 -1.25 C -1.082031 -0.945312 -1.234375 -0.726562 -1.359375 -0.59375 L -1.53125 -0.375 L -4.125 -1.90625 C -4.007812 -2.039062 -3.867188 -2.222656 -3.703125 -2.453125 C -3.535156 -2.679688 -3.304688 -3.085938 -3.015625 -3.671875 C -2.734375 -4.253906 -2.59375 -4.769531 -2.59375 -5.21875 C -2.59375 -6.519531 -3.035156 -7.171875 -3.921875 -7.171875 C -4.109375 -7.171875 -4.28125 -7.125 -4.4375 -7.03125 C -4.59375 -6.9375 -4.75 -6.769531 -4.90625 -6.53125 C -5.070312 -6.300781 -5.203125 -6.09375 -5.296875 -5.90625 C -5.390625 -5.726562 -5.53125 -5.4375 -5.71875 -5.03125 C -5.90625 -4.625 -6.050781 -4.320312 -6.15625 -4.125 C -6.550781 -3.300781 -7.050781 -2.664062 -7.65625 -2.21875 C -8.269531 -1.769531 -8.925781 -1.546875 -9.625 -1.546875 C -10.832031 -1.546875 -11.816406 -1.992188 -12.578125 -2.890625 C -13.347656 -3.785156 -13.734375 -4.804688 -13.734375 -5.953125 Z M -13.734375 -5.953125 "/></g></g></g></svg>